# Blender 5.2.0 LTS
# www.blender.org
mtllib cucumber_whole.mtl
o Cuke_BodyA
v -2.720949 0.880000 -7.322800
v -2.127205 0.880000 -7.642126
v -2.112623 1.253596 -7.514210
v -2.725654 1.075413 -7.268962
v -1.512014 0.880000 -7.719412
v -1.488060 1.315900 -7.599965
v -0.911175 0.880000 -7.812414
v -0.894338 1.350034 -7.646947
v -0.322974 0.880000 -7.791862
v -0.283906 1.340734 -7.634147
v 0.283917 0.880000 -7.792463
v 0.299098 1.348264 -7.644510
v -2.122932 1.446849 -7.184180
v -2.708059 1.192954 -7.101685
v -1.495535 1.551272 -7.218110
v -0.902628 1.632769 -7.244589
v -2.081033 1.455504 -6.813007
v -2.699554 1.179537 -6.902675
v -1.477492 1.568655 -6.776242
v -0.873319 1.650263 -6.749726
v -0.315143 1.630401 -7.243820
v -0.277715 1.648679 -6.750241
v 0.285765 1.662525 -7.254258
v 0.295137 1.621651 -6.759023
v 0.874041 1.597949 -7.233276
v 0.879738 1.607805 -6.763522
v 1.499030 1.564994 -7.222568
v 1.476131 1.541488 -6.785069
v 2.116316 1.448050 -7.184570
v 2.116743 1.467315 -6.809170
v 2.696834 1.204763 -7.105522
v 2.729282 1.204216 -6.894656
v -1.512724 1.313418 -6.403451
v -2.095104 1.231520 -6.516175
v -2.703981 1.064768 -6.745688
v -2.107656 0.880000 -6.376568
v -2.724557 0.880000 -6.684698
v -1.522916 0.880000 -6.246322
v -0.890151 1.340839 -6.365710
v -0.887910 0.880000 -6.245215
v -0.303049 1.341668 -6.364568
v -0.276997 0.880000 -6.180120
v 0.303980 1.354133 -6.347412
v 0.311430 0.880000 -6.150466
v 0.873155 1.335266 -6.373380
v 0.879076 0.880000 -6.249489
v 1.485885 1.298635 -6.423799
v 1.479686 0.880000 -6.256161
v 2.083383 1.236371 -6.509498
v 2.129096 0.880000 -6.367003
v 2.691878 1.080688 -6.723776
v 2.683611 0.880000 -6.680252
v -0.870414 0.411968 -6.355809
v -1.484572 0.458480 -6.419827
v -0.278161 0.386435 -6.320666
v 0.307056 0.399552 -6.338720
v 0.891817 0.434653 -6.387032
v 1.527059 0.473577 -6.440607
v 2.118365 0.506595 -6.486052
v 2.682262 0.692469 -6.741886
v -0.912924 0.110951 -6.750121
v -0.305082 0.119183 -6.752796
v -0.276948 0.113569 -7.249029
v -0.889881 0.140287 -7.240347
v 0.273240 0.091391 -6.743765
v 0.316798 0.075788 -7.261304
v 0.922460 0.164522 -6.767527
v 0.878913 0.124932 -7.245337
v -2.673137 0.564476 -7.102520
v -2.104344 0.284895 -7.193361
v -2.094866 0.524134 -7.489807
v -2.706199 0.685869 -7.267199
v -1.489907 0.221398 -7.213993
v -1.495618 0.445239 -7.598397
v -0.902298 0.437933 -7.608453
v 0.890843 0.428384 -7.621596
v 1.528710 0.454277 -7.585958
v 1.477371 0.880000 -7.713624
v 0.893939 0.880000 -7.778246
v 2.071739 0.522785 -7.491663
v 2.111772 0.880000 -7.635868
v 2.717979 0.684552 -7.269011
v 2.686765 0.880000 -7.314065
v -2.716606 0.578615 -6.902074
v -2.680389 0.688516 -6.736445
v 2.711551 1.068615 -7.259606
v 2.724019 0.564570 -6.897511
v 2.698768 0.558496 -7.104463
vn -0.4615 0.2253 -0.8581
vn -0.1178 0.3258 -0.9381
vn -0.1473 0.2689 -0.9518
vn 0.0330 0.3308 -0.9431
vn -0.0009 0.3239 -0.9461
vn -0.4144 0.7796 -0.4695
vn -0.1552 0.8396 -0.5206
vn -0.0922 0.8138 -0.5738
vn -0.3875 0.9185 0.0785
vn -0.1644 0.9864 -0.0044
vn -0.1376 0.9899 -0.0333
vn 0.0041 0.9994 -0.0356
vn -0.0539 0.9980 -0.0329
vn 0.1060 0.9912 0.0798
vn 0.0516 0.9971 0.0563
vn 0.1889 0.9807 -0.0505
vn 0.3916 0.9189 -0.0476
vn -0.1866 0.8188 0.5430
vn -0.4127 0.3489 0.8414
vn -0.2244 0.3368 0.9145
vn -0.0696 0.2520 0.9652
vn -0.0022 0.2530 0.9675
vn -0.0338 0.3692 0.9288
vn 0.0527 0.2629 0.9634
vn 0.0947 0.2625 0.9603
vn 0.1693 0.3642 0.9158
vn 0.3926 0.3844 0.8355
vn -0.0016 -0.3808 0.9247
vn -0.1031 -0.2324 0.9671
vn -0.0469 -0.3641 0.9302
vn 0.1602 -0.3614 0.9186
vn 0.0106 -0.2948 0.9555
vn 0.1547 -0.3933 0.9063
vn 0.4724 -0.2782 0.8363
vn 0.0133 -0.9982 -0.0591
vn -0.0481 -0.9988 0.0086
vn 0.1142 -0.9909 0.0717
vn -0.4331 -0.6946 -0.5744
vn -0.1009 -0.7726 -0.6268
vn -0.4045 -0.3907 -0.8269
vn -0.2060 -0.2696 -0.9407
vn -0.0205 -0.4192 -0.9077
vn 0.0649 -0.2795 -0.9580
vn 0.1969 -0.2598 -0.9454
vn 0.3563 -0.1555 -0.9213
vn -0.9977 -0.0062 0.0670
vn 0.9998 -0.0081 -0.0189
vn -0.4291 0.3075 -0.8493
vn -0.1573 0.2690 -0.9502
vn -0.0934 0.3336 -0.9381
vn 0.0248 0.3219 -0.9465
vn -0.0208 0.3018 -0.9531
vn -0.4034 0.7681 -0.4973
vn -0.1683 0.8483 -0.5020
vn -0.1390 0.8418 -0.5216
vn -0.4104 0.9116 0.0251
vn -0.1823 0.9827 -0.0312
vn -0.1326 0.9908 -0.0272
vn 0.0026 0.9993 -0.0372
vn 0.0482 0.9955 0.0813
vn 0.0235 0.9995 -0.0213
vn 0.1097 0.9937 -0.0222
vn 0.1170 0.9914 0.0594
vn 0.3873 0.9202 -0.0572
vn -0.2225 0.7833 0.5805
vn -0.4224 0.3262 0.8457
vn -0.2022 0.3677 0.9077
vn -0.0016 0.3409 0.9401
vn -0.0987 0.3644 0.9260
vn -0.0465 0.3826 0.9228
vn 0.1589 0.3809 0.9109
vn 0.0103 0.3716 0.9283
vn 0.1554 0.3839 0.9102
vn 0.4850 0.1662 0.8586
vn -0.1182 -0.2325 0.9654
vn -0.0687 -0.2731 0.9595
vn 0.0358 -0.2738 0.9611
vn 0.0961 -0.2912 0.9518
vn 0.1014 -0.4013 0.9103
vn 0.0899 -0.3049 0.9481
vn 0.4717 -0.2801 0.8361
vn -0.0434 -0.9990 0.0088
vn -0.0630 -0.9977 0.0248
vn 0.0860 -0.9956 0.0373
vn -0.3863 -0.7778 -0.4958
vn -0.2006 -0.8479 -0.4908
vn -0.4551 -0.2770 -0.8463
vn -0.1143 -0.3997 -0.9095
vn -0.1473 -0.2704 -0.9514
vn 0.1041 -0.3266 -0.9394
vn 0.1124 -0.3828 -0.9170
vn 0.4523 -0.3770 -0.8082
vn -0.9833 -0.0230 0.1804
vn -0.7877 0.5785 -0.2116
vn -0.8670 -0.0665 -0.4939
vn -0.9931 0.1062 0.0496
vn -0.9866 -0.0649 0.1494
vn -0.9909 -0.1325 0.0253
vn -0.9980 -0.0629 -0.0112
vn 0.8720 0.0266 -0.4889
vn 0.9523 0.2680 -0.1459
vn 0.9757 0.0073 0.2188
vn 0.9292 -0.1214 0.3491
vn 0.9522 -0.2858 -0.1078
vn 0.9983 0.0181 -0.0552
vn 0.9807 -0.0089 0.1954
s 0
usemtl CukeBase.002
f 4//1 2//1 1//1
f 3//2 5//2 2//2
f 6//3 7//3 5//3
f 8//4 9//4 7//4
f 10//5 11//5 9//5
f 4//6 13//6 3//6
f 3//7 15//7 6//7
f 6//8 16//8 8//8
f 18//9 13//9 14//9
f 17//10 15//10 13//10
f 19//11 16//11 15//11
f 20//12 21//12 16//12
f 22//13 23//13 21//13
f 24//14 25//14 23//14
f 25//15 28//15 27//15
f 27//16 30//16 29//16
f 30//17 31//17 29//17
f 17//18 33//18 19//18
f 35//19 36//19 34//19
f 34//20 38//20 33//20
f 33//21 40//21 39//21
f 40//22 41//22 39//22
f 42//23 43//23 41//23
f 43//24 46//24 45//24
f 46//25 47//25 45//25
f 48//26 49//26 47//26
f 50//27 51//27 49//27
f 54//28 40//28 38//28
f 53//29 42//29 40//29
f 42//30 56//30 44//30
f 56//31 46//31 44//31
f 57//32 48//32 46//32
f 58//33 50//33 48//33
f 50//34 60//34 52//34
f 64//35 62//35 61//35
f 63//36 65//36 62//36
f 65//37 68//37 67//37
f 69//38 71//38 70//38
f 71//39 73//39 70//39
f 72//40 2//40 71//40
f 71//41 5//41 74//41
f 74//42 7//42 75//42
f 76//43 78//43 77//43
f 78//44 80//44 77//44
f 80//45 83//45 82//45
f 85//46 14//46 1//46
f 32//47 87//47 82//47
f 4//48 3//48 2//48
f 3//49 6//49 5//49
f 6//50 8//50 7//50
f 8//51 10//51 9//51
f 10//52 12//52 11//52
f 4//53 14//53 13//53
f 3//54 13//54 15//54
f 6//55 15//55 16//55
f 18//56 17//56 13//56
f 17//57 19//57 15//57
f 19//58 20//58 16//58
f 20//59 22//59 21//59
f 22//60 24//60 23//60
f 24//61 26//61 25//61
f 25//62 26//62 28//62
f 27//63 28//63 30//63
f 30//64 32//64 31//64
f 17//65 34//65 33//65
f 35//66 37//66 36//66
f 34//67 36//67 38//67
f 33//68 38//68 40//68
f 40//69 42//69 41//69
f 42//70 44//70 43//70
f 43//71 44//71 46//71
f 46//72 48//72 47//72
f 48//73 50//73 49//73
f 50//74 52//74 51//74
f 54//75 53//75 40//75
f 53//76 55//76 42//76
f 42//77 55//77 56//77
f 56//78 57//78 46//78
f 57//79 58//79 48//79
f 58//80 59//80 50//80
f 50//81 59//81 60//81
f 64//82 63//82 62//82
f 63//83 66//83 65//83
f 65//84 66//84 68//84
f 69//85 72//85 71//85
f 71//86 74//86 73//86
f 72//87 1//87 2//87
f 71//88 2//88 5//88
f 74//89 5//89 7//89
f 76//90 79//90 78//90
f 78//91 81//91 80//91
f 80//92 81//92 83//92
f 1//93 72//93 69//93
f 69//94 84//94 85//94
f 85//95 37//95 35//95
f 35//96 18//96 14//96
f 14//97 4//97 1//97
f 1//98 69//98 85//98
f 85//99 35//99 14//99
f 82//100 83//100 86//100
f 86//101 31//101 32//101
f 32//102 51//102 52//102
f 52//103 60//103 87//103
f 87//104 88//104 82//104
f 82//105 86//105 32//105
f 32//106 52//106 87//106
o Cuke_BodyB
v 0.283917 0.880000 -7.792463
v 0.893939 0.880000 -7.778246
v 0.908057 1.325434 -7.613087
v 0.299098 1.348264 -7.644510
v 1.477371 0.880000 -7.713624
v 1.529586 1.317985 -7.602835
v 2.111772 0.880000 -7.635868
v 2.092002 1.234138 -7.487429
v 2.686765 0.880000 -7.314065
v 2.711551 1.068615 -7.259606
v 0.874041 1.597949 -7.233276
v 0.285765 1.662525 -7.254258
v 1.499030 1.564994 -7.222568
v 2.116316 1.448050 -7.184570
v 2.696834 1.204763 -7.105522
v -2.699554 1.179537 -6.902675
v -2.081033 1.455504 -6.813007
v -2.095104 1.231520 -6.516175
v -2.703981 1.064768 -6.745688
v -2.724557 0.880000 -6.684698
v -2.107656 0.880000 -6.376568
v -2.126233 0.516526 -6.499721
v -2.680389 0.688516 -6.736445
v -1.522916 0.880000 -6.246322
v -1.484572 0.458480 -6.419827
v -2.117642 0.317613 -6.817269
v -2.716606 0.578615 -6.902074
v -1.500662 0.214424 -6.783741
v -0.870414 0.411968 -6.355809
v -0.912924 0.110951 -6.750121
v -0.278161 0.386435 -6.320666
v -0.305082 0.119183 -6.752796
v 0.307056 0.399552 -6.338720
v 0.273240 0.091391 -6.743765
v 0.891817 0.434653 -6.387032
v 0.922460 0.164522 -6.767527
v 1.527059 0.473577 -6.440607
v 1.478796 0.191156 -6.776181
v 2.118365 0.506595 -6.486052
v 2.114392 0.277625 -6.804276
v 2.682262 0.692469 -6.741886
v 2.724019 0.564570 -6.897511
v -2.104344 0.284895 -7.193361
v -2.673137 0.564476 -7.102520
v -1.489907 0.221398 -7.213993
v -0.889881 0.140287 -7.240347
v 1.471623 0.190234 -7.224119
v 0.878913 0.124932 -7.245337
v 2.101058 0.308804 -7.185593
v 2.698768 0.558496 -7.104463
v -0.902298 0.437933 -7.608453
v -0.320945 0.380456 -7.687563
v -0.322974 0.880000 -7.791862
v -0.911175 0.880000 -7.812414
v 0.317872 0.384050 -7.682617
v 0.890843 0.428384 -7.621596
vn 0.0222 0.3006 -0.9535
vn 0.1034 0.3429 -0.9337
vn 0.1184 0.2302 -0.9659
vn 0.4545 0.3658 -0.8122
vn 0.0603 0.8136 -0.5783
vn 0.0190 0.8392 -0.5436
vn 0.2291 0.8246 -0.5172
vn 0.4030 0.7046 -0.5841
vn -0.4073 0.7382 0.5377
vn -0.4224 -0.3260 0.8457
vn -0.2003 -0.3884 0.8994
vn -0.4382 -0.7670 0.4686
vn -0.1433 -0.8190 0.5556
vn -0.1229 -0.7824 0.6105
vn -0.0678 -0.8466 0.5278
vn 0.0365 -0.7968 0.6032
vn 0.0965 -0.8079 0.5813
vn 0.1004 -0.7683 0.6322
vn 0.0898 -0.8090 0.5809
vn 0.4694 -0.7195 0.5118
vn -0.3968 -0.9176 -0.0213
vn -0.1686 -0.9825 0.0795
vn -0.1722 -0.9848 -0.0203
vn 0.0478 -0.9989 0.0013
vn 0.1306 -0.9878 -0.0853
vn 0.4226 -0.9060 -0.0250
vn -0.1517 -0.2026 -0.9674
vn 0.0088 -0.2157 -0.9764
vn 0.1250 -0.3259 -0.9371
vn 0.0613 0.3453 -0.9365
vn 0.0189 0.2431 -0.9698
vn 0.2403 0.3866 -0.8904
vn 0.3862 0.2087 -0.8985
vn 0.1074 0.7761 -0.6213
vn 0.0528 0.8136 -0.5790
vn 0.1862 0.7954 -0.5768
vn 0.3850 0.7390 -0.5529
vn -0.4043 0.7437 0.5323
vn -0.4474 -0.2664 0.8537
vn -0.1451 -0.3108 0.9393
vn -0.3953 -0.7232 0.5663
vn -0.1683 -0.8374 0.5200
vn -0.1750 -0.8141 0.5537
vn 0.0134 -0.7955 0.6058
vn -0.0490 -0.8481 0.5276
vn 0.1114 -0.7954 0.5958
vn 0.0479 -0.8126 0.5808
vn 0.1322 -0.7677 0.6271
vn 0.4045 -0.6504 0.6430
vn -0.4321 -0.8996 0.0630
vn -0.1034 -0.9945 -0.0187
vn -0.1365 -0.9885 -0.0656
vn 0.1067 -0.9917 0.0724
vn 0.1852 -0.9827 -0.0009
vn 0.3942 -0.9148 -0.0886
vn 0.0317 -0.4182 -0.9078
vn -0.0010 -0.2044 -0.9789
vn 0.0228 -0.2147 -0.9764
s 0
usemtl CukeLight.002
f 92//107 90//107 89//107
f 91//108 93//108 90//108
f 94//109 95//109 93//109
f 96//110 97//110 95//110
f 92//111 99//111 91//111
f 91//112 101//112 94//112
f 101//113 96//113 94//113
f 96//114 103//114 98//114
f 104//115 106//115 105//115
f 111//116 109//116 108//116
f 109//117 113//117 112//117
f 111//118 114//118 110//118
f 110//119 116//119 113//119
f 113//120 118//120 117//120
f 117//121 120//121 119//121
f 119//122 122//122 121//122
f 121//123 124//123 123//123
f 123//124 126//124 125//124
f 125//125 128//125 127//125
f 128//126 129//126 127//126
f 132//127 114//127 115//127
f 131//128 116//128 114//128
f 133//129 118//129 116//129
f 124//130 135//130 126//130
f 126//131 137//131 128//131
f 128//132 138//132 130//132
f 139//133 141//133 140//133
f 140//134 89//134 143//134
f 143//135 90//135 144//135
f 92//136 91//136 90//136
f 91//137 94//137 93//137
f 94//138 96//138 95//138
f 96//139 98//139 97//139
f 92//140 100//140 99//140
f 91//141 99//141 101//141
f 101//142 102//142 96//142
f 96//143 102//143 103//143
f 104//144 107//144 106//144
f 111//145 110//145 109//145
f 109//146 110//146 113//146
f 111//147 115//147 114//147
f 110//148 114//148 116//148
f 113//149 116//149 118//149
f 117//150 118//150 120//150
f 119//151 120//151 122//151
f 121//152 122//152 124//152
f 123//153 124//153 126//153
f 125//154 126//154 128//154
f 128//155 130//155 129//155
f 132//156 131//156 114//156
f 131//157 133//157 116//157
f 133//158 134//158 118//158
f 124//159 136//159 135//159
f 126//160 135//160 137//160
f 128//161 137//161 138//161
f 139//162 142//162 141//162
f 140//163 141//163 89//163
f 143//164 89//164 90//164
o Cuke_BodyC
v -0.894338 1.350034 -7.646947
v -0.283906 1.340734 -7.634147
v -0.315143 1.630401 -7.243820
v -0.902628 1.632769 -7.244589
v 0.299098 1.348264 -7.644510
v 0.285765 1.662525 -7.254258
v -1.477492 1.568655 -6.776242
v -0.873319 1.650263 -6.749726
v -0.890151 1.340839 -6.365710
v -1.512724 1.313418 -6.403451
v -0.277715 1.648679 -6.750241
v -0.303049 1.341668 -6.364568
v 0.295137 1.621651 -6.759023
v 0.303980 1.354133 -6.347412
v 0.879738 1.607805 -6.763522
v 0.873155 1.335266 -6.373380
v 1.476131 1.541488 -6.785069
v 1.485885 1.298635 -6.423799
v 2.116743 1.467315 -6.809170
v 2.083383 1.236371 -6.509498
v 2.729282 1.204216 -6.894656
v 2.691878 1.080688 -6.723776
v -1.489907 0.221398 -7.213993
v -0.889881 0.140287 -7.240347
v -0.902298 0.437933 -7.608453
v -1.495618 0.445239 -7.598397
v -0.276948 0.113569 -7.249029
v -0.320945 0.380456 -7.687563
v 0.316798 0.075788 -7.261304
v 0.317872 0.384050 -7.682617
v 0.878913 0.124932 -7.245337
v 0.890843 0.428384 -7.621596
v 1.471623 0.190234 -7.224119
v 1.528710 0.454277 -7.585958
v 2.101058 0.308804 -7.185593
v 2.071739 0.522785 -7.491663
v 2.698768 0.558496 -7.104463
v 2.717979 0.684552 -7.269011
v -2.720000 0.880000 -7.200000
v -2.720000 1.053205 -7.100000
v -2.920000 0.880000 -7.000000
v -2.720000 1.053205 -6.900000
v -2.720000 0.880000 -6.800000
v -2.720000 0.706795 -6.900000
v -2.720000 0.706795 -7.100000
vn 0.0247 0.8037 -0.5945
vn -0.0212 0.7783 -0.6275
vn -0.1318 0.7747 0.6184
vn 0.0026 0.7823 0.6229
vn 0.0479 0.8380 0.5436
vn 0.0238 0.8194 0.5728
vn 0.1111 0.8138 0.5704
vn 0.1135 0.7808 0.6144
vn 0.3860 0.7054 0.5945
vn -0.1317 -0.7730 -0.6206
vn -0.0446 -0.8554 -0.5161
vn -0.0634 -0.8053 -0.5894
vn 0.0870 -0.8041 -0.5881
vn 0.1077 -0.7755 -0.6221
vn 0.1864 -0.8074 -0.5598
vn 0.3839 -0.7391 -0.5535
vn -0.6547 0.3780 -0.6547
vn -0.6547 0.7559 -0.0000
vn -0.6547 0.3780 0.6547
vn -0.6547 -0.3780 0.6547
vn -0.6547 -0.7559 -0.0000
vn -0.6547 -0.3780 -0.6547
vn 0.0041 0.8182 -0.5749
vn -0.0531 0.7999 -0.5978
vn -0.0703 0.8262 0.5590
vn -0.0023 0.7787 0.6274
vn -0.0336 0.7830 0.6211
vn 0.0526 0.8378 0.5434
vn 0.0950 0.8273 0.5536
vn 0.1640 0.8207 0.5473
vn 0.3887 0.7084 0.5892
vn -0.0192 -0.8641 -0.5029
vn -0.1602 -0.7702 -0.6174
vn 0.0088 -0.8538 -0.5205
vn 0.1260 -0.7741 -0.6203
vn 0.0654 -0.8109 -0.5814
vn 0.1999 -0.7939 -0.5742
vn 0.3741 -0.7568 -0.5361
s 0
usemtl CukeDark.002
f 145//165 147//165 146//165
f 146//166 150//166 149//166
f 151//167 153//167 152//167
f 152//168 156//168 155//168
f 155//169 158//169 157//169
f 157//170 160//170 159//170
f 160//171 161//171 159//171
f 161//172 164//172 163//172
f 163//173 166//173 165//173
f 167//174 169//174 168//174
f 168//175 172//175 171//175
f 171//176 174//176 173//176
f 174//177 175//177 173//177
f 176//178 177//178 175//178
f 178//179 179//179 177//179
f 180//180 181//180 179//180
f 183//181 185//181 184//181
f 184//182 185//182 186//182
f 186//183 185//183 187//183
f 187//184 185//184 188//184
f 188//185 185//185 189//185
f 189//186 185//186 183//186
f 145//187 148//187 147//187
f 146//188 147//188 150//188
f 151//189 154//189 153//189
f 152//190 153//190 156//190
f 155//191 156//191 158//191
f 157//192 158//192 160//192
f 160//193 162//193 161//193
f 161//194 162//194 164//194
f 163//195 164//195 166//195
f 167//196 170//196 169//196
f 168//197 169//197 172//197
f 171//198 172//198 174//198
f 174//199 176//199 175//199
f 176//200 178//200 177//200
f 178//201 180//201 179//201
f 180//202 182//202 181//202
o Cuke_Bumps
v -1.503302 1.474025 -7.352324
v -1.555264 1.513038 -7.271220
v -1.503302 1.590150 -7.341603
v -1.451341 1.513038 -7.271220
v -1.947140 1.230486 -7.559705
v -1.999102 1.302109 -7.505207
v -1.947140 1.338789 -7.602955
v -1.895179 1.302109 -7.505207
v 1.663823 1.517703 -7.216102
v 1.611862 1.538878 -7.128629
v 1.663823 1.629013 -7.181314
v 1.715785 1.538878 -7.128629
v -0.046699 1.153898 -6.272653
v -0.098661 1.067475 -6.247533
v -0.046699 1.124194 -6.159880
v 0.005262 1.067475 -6.247533
v 0.596159 0.506463 -7.670930
v 0.544198 0.588278 -7.708432
v 0.596159 0.519338 -7.786837
v 0.648121 0.588278 -7.708432
v -0.434511 0.905178 -7.773377
v -0.486473 0.994633 -7.763482
v -0.434511 0.975809 -7.866174
v -0.382549 0.994633 -7.763482
v -1.555187 1.095101 -6.324702
v -1.607148 1.007342 -6.304745
v -1.555187 1.058770 -6.213887
v -1.503225 1.007342 -6.304745
v 1.534336 0.999229 -6.294242
v 1.482374 0.909542 -6.286742
v 1.534336 0.947772 -6.189590
v 1.586297 0.909542 -6.286742
v -1.597413 1.167165 -6.368736
v -1.649374 1.082326 -6.338697
v -1.597413 1.143983 -6.254445
v -1.545451 1.082326 -6.338697
v -0.657266 0.343128 -7.570220
v -0.709228 0.413189 -7.626714
v -0.657266 0.327065 -7.685728
v -0.605304 0.413189 -7.626714
v 0.317719 1.639981 -6.962250
v 0.265757 1.628442 -6.872993
v 0.317719 1.731463 -6.889924
v 0.369680 1.628442 -6.872993
v -1.952162 1.464105 -7.181249
v -2.004123 1.482216 -7.093090
v -1.952162 1.574133 -7.142600
v -1.900200 1.482216 -7.093090
v -0.575285 1.298900 -6.362198
v -0.627246 1.220023 -6.318859
v -0.575285 1.294470 -6.245663
v -0.523323 1.220023 -6.318859
v 0.118436 0.140069 -7.319625
v 0.066474 0.181810 -7.399361
v 0.118436 0.079302 -7.419161
v 0.170398 0.181810 -7.399361
v 2.107566 0.833115 -7.632065
v 2.055604 0.923096 -7.630196
v 2.107566 0.895179 -7.730797
v 2.159527 0.923096 -7.630196
v -1.765549 0.268522 -7.215579
v -1.817511 0.306173 -7.297325
v -1.765549 0.202794 -7.311911
v -1.713588 0.306173 -7.297325
v 0.258399 1.616943 -6.770612
v 0.206438 1.583595 -6.687018
v 0.258399 1.687593 -6.677830
v 0.310361 1.583595 -6.687018
v 1.904783 0.393917 -6.597763
v 1.852822 0.343393 -6.672243
v 1.904783 0.277479 -6.591279
v 1.956745 0.343393 -6.672243
v -0.100685 0.136058 -7.291981
v -0.152647 0.175136 -7.373055
v -0.100685 0.072028 -7.389451
v -0.048724 0.175136 -7.373055
v -1.366623 0.551077 -6.356453
v -1.418585 0.474615 -6.403924
v -1.366623 0.447356 -6.303143
v -1.314662 0.474615 -6.403924
v 1.124931 1.577385 -7.129919
v 1.072969 1.586325 -7.040364
v 1.124931 1.682851 -7.080149
v 1.176892 1.586325 -7.040364
v -2.087996 1.458842 -7.011674
v -2.139957 1.451322 -6.921989
v -2.087996 1.553479 -6.943529
v -2.036034 1.451322 -6.921989
v -0.777107 0.429527 -6.346227
v -0.829069 0.359488 -6.402747
v -0.777107 0.320035 -6.306085
v -0.725146 0.359488 -6.402747
v 2.035305 0.373822 -6.642910
v 1.983343 0.329308 -6.721131
v 2.035305 0.257234 -6.645598
v 2.087266 0.329308 -6.721131
v -0.763602 0.503422 -7.654621
v -0.815564 0.584753 -7.693159
v -0.763602 0.514823 -7.770681
v -0.711641 0.584753 -7.693159
v -0.205764 1.637459 -7.085266
v -0.257726 1.640455 -6.995316
v -0.205764 1.739401 -7.028628
v -0.153803 1.640455 -6.995316
v -0.300781 0.449988 -6.283696
v -0.352742 0.376350 -6.335441
v -0.300781 0.343402 -6.236373
v -0.248819 0.376350 -6.335441
v 0.450005 0.473599 -6.310245
v 0.398043 0.399700 -6.361615
v 0.450005 0.367255 -6.262382
v 0.501966 0.399700 -6.361615
v -0.660957 1.667944 -6.806551
v -0.712919 1.640081 -6.720973
v -0.660957 1.744455 -6.718539
v -0.608996 1.640081 -6.720973
v -0.018619 1.460781 -7.491553
v -0.070581 1.513326 -7.418484
v -0.018619 1.576999 -7.501224
v 0.033342 1.513326 -7.418484
v -1.172673 1.627152 -6.817995
v -1.224634 1.599093 -6.732480
v -1.172673 1.703462 -6.729809
v -1.120711 1.599093 -6.732480
v -0.813320 1.482651 -7.460428
v -0.865281 1.531461 -7.384813
v -0.813320 1.599207 -7.464251
v -0.761358 1.531461 -7.384813
v -0.121029 1.116207 -7.717796
v -0.172990 1.199193 -7.682965
v -0.121029 1.210233 -7.786783
v -0.069067 1.199193 -7.682965
v -1.535570 0.756934 -7.692766
v -1.587532 0.846566 -7.700894
v -1.535570 0.807657 -7.797776
v -1.483608 0.846566 -7.700894
v -1.268902 0.530439 -7.627603
v -1.320864 0.612449 -7.664676
v -1.268902 0.543919 -7.743440
v -1.216941 0.612449 -7.664676
v -0.126155 1.645071 -7.000935
v -0.178116 1.638122 -6.911203
v -0.126155 1.740140 -6.933393
v -0.074193 1.638122 -6.911203
v -1.003478 1.157828 -7.709778
v -1.055439 1.238794 -7.670477
v -1.003478 1.255472 -7.773540
v -0.951516 1.238794 -7.670477
v 0.747139 0.222601 -6.633945
v 0.695177 0.185227 -6.715817
v 0.747139 0.106715 -6.646999
v 0.799100 0.185227 -6.715817
v -1.044284 0.281855 -7.398398
v -1.096245 0.337826 -7.468877
v -1.044284 0.240859 -7.507574
v -0.992322 0.337826 -7.468877
v 1.997397 1.039255 -7.587805
v 1.945436 1.123382 -7.555826
v 1.997397 1.130872 -7.659960
v 2.049359 1.123382 -7.555826
v 0.930269 1.610826 -6.805706
v 0.878307 1.580874 -6.720836
v 0.930269 1.685158 -6.715846
v 0.982230 1.580874 -6.720836
v 1.472685 0.784845 -6.311330
v 1.420723 0.697088 -6.331297
v 1.472685 0.704155 -6.227134
v 1.524646 0.697088 -6.331297
v -0.247584 0.097512 -7.201056
v -0.299545 0.126321 -7.286320
v -0.247584 0.021980 -7.289908
v -0.195622 0.126321 -7.286320
v 0.581183 1.632636 -6.816921
v 0.529222 1.604654 -6.731382
v 0.581183 1.709025 -6.728804
v 0.633145 1.604654 -6.731382
v 1.955704 1.331727 -7.402868
v 1.903743 1.384677 -7.330092
v 1.955704 1.447889 -7.413184
v 2.007666 1.384677 -7.330092
v 0.698803 1.305046 -7.635633
v 0.646842 1.375704 -7.579889
v 0.698803 1.414089 -7.676980
v 0.750765 1.375704 -7.579889
vn -0.8295 0.0513 -0.5561
vn -0.0000 0.6741 0.7386
vn 0.8295 0.0513 -0.5561
vn -0.8295 -0.2071 -0.5187
vn -0.0000 0.9363 0.3513
vn 0.8295 -0.2071 -0.5187
vn -0.8295 0.1666 -0.5331
vn -0.0000 0.5046 0.8633
vn 0.8295 0.1666 -0.5331
vn -0.8295 0.5401 0.1423
vn -0.0000 -0.8396 0.5433
vn 0.8295 0.5401 0.1423
vn -0.8295 -0.5551 -0.0617
vn -0.0000 0.7510 -0.6603
vn 0.8295 -0.5551 -0.0617
vn -0.8295 -0.4444 -0.3383
vn -0.0000 0.9836 -0.1803
vn 0.8295 -0.4444 -0.3383
vn -0.8295 0.5307 0.1740
vn -0.0000 -0.8703 0.4926
vn 0.8295 0.5307 0.1740
vn -0.8295 0.5012 0.2464
vn -0.0000 -0.9305 0.3662
vn 0.8295 0.5012 0.2464
vn -0.8295 0.5474 0.1110
vn -0.0000 -0.8070 0.5906
vn 0.8295 0.5474 0.1110
vn -0.8295 -0.5532 0.0769
vn -0.0000 0.5653 -0.8249
vn 0.8295 -0.5532 0.0769
vn -0.8295 0.3464 -0.4381
vn -0.0000 0.1622 0.9868
vn 0.8295 0.3464 -0.4381
vn -0.8295 0.1851 -0.5269
vn -0.0000 0.4742 0.8804
vn 0.8295 0.1851 -0.5269
vn -0.8295 0.5581 0.0212
vn -0.0000 -0.7011 0.7131
vn 0.8295 0.5581 0.0212
vn -0.8295 -0.4767 0.2910
vn -0.0000 0.1896 -0.9819
vn 0.8295 -0.4767 0.2910
vn -0.8295 -0.4728 -0.2972
vn -0.0000 0.9636 -0.2674
vn 0.8295 -0.4728 -0.2972
vn -0.8295 -0.4613 0.3148
vn -0.0000 0.1397 -0.9902
vn 0.8295 -0.4613 0.3148
vn -0.8295 0.4443 -0.3384
vn -0.0000 -0.0880 0.9961
vn 0.8295 0.4443 -0.3384
vn -0.8295 0.0311 0.5576
vn -0.0000 -0.7755 -0.6313
vn 0.8295 0.0311 0.5576
vn -0.8295 -0.4668 0.3066
vn -0.0000 0.1570 -0.9876
vn 0.8295 -0.4668 0.3066
vn -0.8295 0.2553 0.4967
vn -0.0000 -0.9653 -0.2611
vn 0.8295 0.2553 0.4967
vn -0.8295 0.2384 -0.5051
vn -0.0000 0.3811 0.9245
vn 0.8295 0.2384 -0.5051
vn -0.8295 0.3264 -0.4532
vn -0.0000 0.2063 0.9785
vn 0.8295 0.3264 -0.4532
vn -0.8295 0.1922 0.5244
vn -0.0000 -0.9259 -0.3779
vn 0.8295 0.1922 0.5244
vn -0.8295 -0.0129 0.5584
vn -0.0000 -0.7235 -0.6903
vn 0.8295 -0.0129 0.5584
vn -0.8295 -0.5558 -0.0546
vn -0.0000 0.7425 -0.6698
vn 0.8295 -0.5558 -0.0546
vn -0.8295 0.2712 -0.4882
vn -0.0000 0.3191 0.9477
vn 0.8295 0.2712 -0.4882
vn -0.8295 0.2266 0.5105
vn -0.0000 -0.9489 -0.3156
vn 0.8295 0.2266 0.5105
vn -0.8295 0.2292 0.5093
vn -0.0000 -0.9505 -0.3108
vn 0.8295 0.2292 0.5093
vn -0.8295 0.4215 -0.3664
vn -0.0000 -0.0233 0.9997
vn 0.8295 0.4215 -0.3664
vn -0.8295 -0.0463 -0.5566
vn -0.0000 0.7925 0.6099
vn 0.8295 -0.0463 -0.5566
vn -0.8295 0.4223 -0.3655
vn -0.0000 -0.0256 0.9997
vn 0.8295 0.4223 -0.3655
vn -0.8295 -0.0183 -0.5582
vn -0.0000 0.7609 0.6489
vn 0.8295 -0.0183 -0.5582
vn -0.8295 -0.3304 -0.4503
vn -0.0000 0.9944 0.1057
vn 0.8295 -0.3304 -0.4503
vn -0.8295 -0.5029 -0.2429
vn -0.0000 0.9280 -0.3727
vn 0.8295 -0.5029 -0.2429
vn -0.8295 -0.5548 -0.0646
vn -0.0000 0.7544 -0.6564
vn 0.8295 -0.5548 -0.0646
vn -0.8295 0.3235 -0.4553
vn -0.0000 0.2125 0.9772
vn 0.8295 0.3235 -0.4553
vn -0.8295 -0.3054 -0.4676
vn -0.0000 0.9872 0.1598
vn 0.8295 -0.3054 -0.4676
vn -0.8295 -0.0625 0.5550
vn -0.0000 -0.6592 -0.7520
vn 0.8295 -0.0625 0.5550
vn -0.8295 -0.5229 0.1963
vn -0.0000 0.3707 -0.9288
vn 0.8295 -0.5229 0.1963
vn -0.8295 -0.3456 -0.4388
vn -0.0000 0.9974 0.0717
vn 0.8295 -0.3456 -0.4388
vn -0.8295 0.4303 -0.3560
vn -0.0000 -0.0478 0.9989
vn 0.8295 0.4303 -0.3560
vn -0.8295 0.4032 0.3864
vn -0.0000 -0.9977 0.0677
vn 0.8295 0.4032 0.3864
vn -0.8295 -0.4255 0.3617
vn -0.0000 0.0344 -0.9994
vn 0.8295 -0.4255 0.3617
vn -0.8295 0.4220 -0.3658
vn -0.0000 -0.0247 0.9997
vn 0.8295 0.4220 -0.3658
vn -0.8295 -0.0494 -0.5563
vn -0.0000 0.7959 0.6055
vn 0.8295 -0.0494 -0.5563
vn -0.8295 -0.1980 -0.5222
vn -0.0000 0.9300 0.3677
vn 0.8295 -0.1980 -0.5222
s 0
usemtl CukeBump.002
f 190//203 191//203 192//203
f 191//204 193//204 192//204
f 193//205 190//205 192//205
f 194//206 195//206 196//206
f 195//207 197//207 196//207
f 197//208 194//208 196//208
f 198//209 199//209 200//209
f 199//210 201//210 200//210
f 201//211 198//211 200//211
f 202//212 203//212 204//212
f 203//213 205//213 204//213
f 205//214 202//214 204//214
f 206//215 207//215 208//215
f 207//216 209//216 208//216
f 209//217 206//217 208//217
f 210//218 211//218 212//218
f 211//219 213//219 212//219
f 213//220 210//220 212//220
f 214//221 215//221 216//221
f 215//222 217//222 216//222
f 217//223 214//223 216//223
f 218//224 219//224 220//224
f 219//225 221//225 220//225
f 221//226 218//226 220//226
f 222//227 223//227 224//227
f 223//228 225//228 224//228
f 225//229 222//229 224//229
f 226//230 227//230 228//230
f 227//231 229//231 228//231
f 229//232 226//232 228//232
f 230//233 231//233 232//233
f 231//234 233//234 232//234
f 233//235 230//235 232//235
f 234//236 235//236 236//236
f 235//237 237//237 236//237
f 237//238 234//238 236//238
f 238//239 239//239 240//239
f 239//240 241//240 240//240
f 241//241 238//241 240//241
f 242//242 243//242 244//242
f 243//243 245//243 244//243
f 245//244 242//244 244//244
f 246//245 247//245 248//245
f 247//246 249//246 248//246
f 249//247 246//247 248//247
f 250//248 251//248 252//248
f 251//249 253//249 252//249
f 253//250 250//250 252//250
f 254//251 255//251 256//251
f 255//252 257//252 256//252
f 257//253 254//253 256//253
f 258//254 259//254 260//254
f 259//255 261//255 260//255
f 261//256 258//256 260//256
f 262//257 263//257 264//257
f 263//258 265//258 264//258
f 265//259 262//259 264//259
f 266//260 267//260 268//260
f 267//261 269//261 268//261
f 269//262 266//262 268//262
f 270//263 271//263 272//263
f 271//264 273//264 272//264
f 273//265 270//265 272//265
f 274//266 275//266 276//266
f 275//267 277//267 276//267
f 277//268 274//268 276//268
f 278//269 279//269 280//269
f 279//270 281//270 280//270
f 281//271 278//271 280//271
f 282//272 283//272 284//272
f 283//273 285//273 284//273
f 285//274 282//274 284//274
f 286//275 287//275 288//275
f 287//276 289//276 288//276
f 289//277 286//277 288//277
f 290//278 291//278 292//278
f 291//279 293//279 292//279
f 293//280 290//280 292//280
f 294//281 295//281 296//281
f 295//282 297//282 296//282
f 297//283 294//283 296//283
f 298//284 299//284 300//284
f 299//285 301//285 300//285
f 301//286 298//286 300//286
f 302//287 303//287 304//287
f 303//288 305//288 304//288
f 305//289 302//289 304//289
f 306//290 307//290 308//290
f 307//291 309//291 308//291
f 309//292 306//292 308//292
f 310//293 311//293 312//293
f 311//294 313//294 312//294
f 313//295 310//295 312//295
f 314//296 315//296 316//296
f 315//297 317//297 316//297
f 317//298 314//298 316//298
f 318//299 319//299 320//299
f 319//300 321//300 320//300
f 321//301 318//301 320//301
f 322//302 323//302 324//302
f 323//303 325//303 324//303
f 325//304 322//304 324//304
f 326//305 327//305 328//305
f 327//306 329//306 328//306
f 329//307 326//307 328//307
f 330//308 331//308 332//308
f 331//309 333//309 332//309
f 333//310 330//310 332//310
f 334//311 335//311 336//311
f 335//312 337//312 336//312
f 337//313 334//313 336//313
f 338//314 339//314 340//314
f 339//315 341//315 340//315
f 341//316 338//316 340//316
f 342//317 343//317 344//317
f 343//318 345//318 344//318
f 345//319 342//319 344//319
f 346//320 347//320 348//320
f 347//321 349//321 348//321
f 349//322 346//322 348//322
f 350//323 351//323 352//323
f 351//324 353//324 352//324
f 353//325 350//325 352//325
f 354//326 355//326 356//326
f 355//327 357//327 356//327
f 357//328 354//328 356//328
f 358//329 359//329 360//329
f 359//330 361//330 360//330
f 361//331 358//331 360//331
f 362//332 363//332 364//332
f 363//333 365//333 364//333
f 365//334 362//334 364//334
f 366//335 367//335 368//335
f 367//336 369//336 368//336
f 369//337 366//337 368//337
f 370//338 371//338 372//338
f 371//339 373//339 372//339
f 373//340 370//340 372//340
