# Blender 5.2.0 LTS
# www.blender.org
mtllib cucumber_slice.mtl
o Slice_Skin
v 0.000000 0.000000 -2.000000
v 0.000000 0.550000 -2.000000
v 0.765367 0.000000 -1.847759
v 0.765367 0.550000 -1.847759
v 1.414214 0.000000 -1.414214
v 1.414214 0.550000 -1.414214
v 1.847759 0.000000 -0.765367
v 1.847759 0.550000 -0.765367
v 2.000000 0.000000 0.000000
v 2.000000 0.550000 0.000000
v 1.847759 0.000000 0.765367
v 1.847759 0.550000 0.765367
v 1.414214 0.000000 1.414214
v 1.414214 0.550000 1.414214
v 0.765367 0.000000 1.847759
v 0.765367 0.550000 1.847759
v 0.000000 0.000000 2.000000
v 0.000000 0.550000 2.000000
v -0.765367 0.000000 1.847759
v -0.765367 0.550000 1.847759
v -1.414214 0.000000 1.414214
v -1.414214 0.550000 1.414214
v -1.847759 0.000000 0.765367
v -1.847759 0.550000 0.765367
v -2.000000 0.000000 0.000000
v -2.000000 0.550000 0.000000
v -1.847759 0.000000 -0.765367
v -1.847759 0.550000 -0.765367
v -1.414214 0.000000 -1.414214
v -1.414214 0.550000 -1.414214
v -0.765367 0.000000 -1.847759
v -0.765367 0.550000 -1.847759
vn 0.1951 -0.0000 -0.9808
vn 0.5556 -0.0000 -0.8315
vn 0.8315 -0.0000 -0.5556
vn 0.9808 -0.0000 -0.1951
vn 0.9808 -0.0000 0.1951
vn 0.8315 -0.0000 0.5556
vn 0.5556 -0.0000 0.8315
vn 0.1951 -0.0000 0.9808
vn -0.1951 -0.0000 0.9808
vn -0.5556 -0.0000 0.8315
vn -0.8315 -0.0000 0.5556
vn -0.9808 -0.0000 0.1951
vn -0.9808 -0.0000 -0.1951
vn -0.8315 -0.0000 -0.5556
vn -0.0000 1.0000 -0.0000
vn -0.5556 -0.0000 -0.8315
vn -0.1951 -0.0000 -0.9808
vn -0.0000 -1.0000 -0.0000
s 0
usemtl SliceSkin
f 2//1 3//1 1//1
f 4//2 5//2 3//2
f 6//3 7//3 5//3
f 8//4 9//4 7//4
f 10//5 11//5 9//5
f 12//6 13//6 11//6
f 14//7 15//7 13//7
f 16//8 17//8 15//8
f 18//9 19//9 17//9
f 20//10 21//10 19//10
f 22//11 23//11 21//11
f 24//12 25//12 23//12
f 26//13 27//13 25//13
f 28//14 29//14 27//14
f 22//15 14//15 6//15
f 30//16 31//16 29//16
f 32//17 1//17 31//17
f 15//18 23//18 31//18
f 2//1 4//1 3//1
f 4//2 6//2 5//2
f 6//3 8//3 7//3
f 8//4 10//4 9//4
f 10//5 12//5 11//5
f 12//6 14//6 13//6
f 14//7 16//7 15//7
f 16//8 18//8 17//8
f 18//9 20//9 19//9
f 20//10 22//10 21//10
f 22//11 24//11 23//11
f 24//12 26//12 25//12
f 26//13 28//13 27//13
f 28//14 30//14 29//14
f 6//15 4//15 2//15
f 2//15 32//15 30//15
f 30//15 28//15 26//15
f 26//15 24//15 22//15
f 22//15 20//15 18//15
f 18//15 16//15 14//15
f 14//15 12//15 10//15
f 10//15 8//15 6//15
f 6//15 2//15 30//15
f 30//15 26//15 22//15
f 22//15 18//15 14//15
f 14//15 10//15 6//15
f 6//15 30//15 22//15
f 30//16 32//16 31//16
f 32//17 2//17 1//17
f 31//18 1//18 3//18
f 3//18 5//18 7//18
f 7//18 9//18 11//18
f 11//18 13//18 15//18
f 15//18 17//18 19//18
f 19//18 21//18 23//18
f 23//18 25//18 27//18
f 27//18 29//18 31//18
f 31//18 3//18 7//18
f 7//18 11//18 15//18
f 15//18 19//18 23//18
f 23//18 27//18 31//18
f 31//18 7//18 15//18
o Slice_Ring
v 0.000000 0.550000 -1.920000
v 0.000000 0.580000 -1.920000
v 0.734752 0.550000 -1.773849
v 0.734752 0.580000 -1.773849
v 1.357645 0.550000 -1.357645
v 1.357645 0.580000 -1.357645
v 1.773849 0.550000 -0.734752
v 1.773849 0.580000 -0.734752
v 1.920000 0.550000 0.000000
v 1.920000 0.580000 0.000000
v 1.773849 0.550000 0.734752
v 1.773849 0.580000 0.734752
v 1.357645 0.550000 1.357645
v 1.357645 0.580000 1.357645
v 0.734752 0.550000 1.773849
v 0.734752 0.580000 1.773849
v 0.000000 0.550000 1.920000
v 0.000000 0.580000 1.920000
v -0.734752 0.550000 1.773849
v -0.734752 0.580000 1.773849
v -1.357645 0.550000 1.357645
v -1.357645 0.580000 1.357645
v -1.773849 0.550000 0.734752
v -1.773849 0.580000 0.734752
v -1.920000 0.550000 0.000000
v -1.920000 0.580000 0.000000
v -1.773849 0.550000 -0.734752
v -1.773849 0.580000 -0.734752
v -1.357645 0.550000 -1.357645
v -1.357645 0.580000 -1.357645
v -0.734752 0.550000 -1.773849
v -0.734752 0.580000 -1.773849
vn 0.1951 -0.0000 -0.9808
vn 0.5556 -0.0000 -0.8315
vn 0.8315 -0.0000 -0.5556
vn 0.9808 -0.0000 -0.1951
vn 0.9808 -0.0000 0.1951
vn 0.8315 -0.0000 0.5556
vn 0.5556 -0.0000 0.8315
vn 0.1951 -0.0000 0.9808
vn -0.1951 -0.0000 0.9808
vn -0.5556 -0.0000 0.8315
vn -0.8315 -0.0000 0.5556
vn -0.9808 -0.0000 0.1951
vn -0.9808 -0.0000 -0.1951
vn -0.8315 -0.0000 -0.5556
vn -0.0000 1.0000 -0.0000
vn -0.5556 -0.0000 -0.8315
vn -0.1951 -0.0000 -0.9808
vn -0.0000 -1.0000 -0.0000
s 0
usemtl SliceSkinRing
f 34//19 35//19 33//19
f 36//20 37//20 35//20
f 38//21 39//21 37//21
f 40//22 41//22 39//22
f 42//23 43//23 41//23
f 44//24 45//24 43//24
f 46//25 47//25 45//25
f 48//26 49//26 47//26
f 50//27 51//27 49//27
f 52//28 53//28 51//28
f 54//29 55//29 53//29
f 56//30 57//30 55//30
f 58//31 59//31 57//31
f 60//32 61//32 59//32
f 54//33 46//33 38//33
f 62//34 63//34 61//34
f 64//35 33//35 63//35
f 47//36 55//36 63//36
f 34//19 36//19 35//19
f 36//20 38//20 37//20
f 38//21 40//21 39//21
f 40//22 42//22 41//22
f 42//23 44//23 43//23
f 44//24 46//24 45//24
f 46//25 48//25 47//25
f 48//26 50//26 49//26
f 50//27 52//27 51//27
f 52//28 54//28 53//28
f 54//29 56//29 55//29
f 56//30 58//30 57//30
f 58//31 60//31 59//31
f 60//32 62//32 61//32
f 38//33 36//33 34//33
f 34//33 64//33 62//33
f 62//33 60//33 58//33
f 58//33 56//33 54//33
f 54//33 52//33 50//33
f 50//33 48//33 46//33
f 46//33 44//33 42//33
f 42//33 40//33 38//33
f 38//33 34//33 62//33
f 62//33 58//33 54//33
f 54//33 50//33 46//33
f 46//33 42//33 38//33
f 38//33 62//33 54//33
f 62//34 64//34 63//34
f 64//35 34//35 33//35
f 63//36 33//36 35//36
f 35//36 37//36 39//36
f 39//36 41//36 43//36
f 43//36 45//36 47//36
f 47//36 49//36 51//36
f 51//36 53//36 55//36
f 55//36 57//36 59//36
f 59//36 61//36 63//36
f 63//36 35//36 39//36
f 39//36 43//36 47//36
f 47//36 51//36 55//36
f 55//36 59//36 63//36
f 63//36 39//36 47//36
o Slice_Flesh
v 0.000000 0.580000 -1.800000
v 0.000000 0.610000 -1.800000
v 0.688830 0.580000 -1.662983
v 0.688830 0.610000 -1.662983
v 1.272792 0.580000 -1.272792
v 1.272792 0.610000 -1.272792
v 1.662983 0.580000 -0.688830
v 1.662983 0.610000 -0.688830
v 1.800000 0.580000 0.000000
v 1.800000 0.610000 0.000000
v 1.662983 0.580000 0.688830
v 1.662983 0.610000 0.688830
v 1.272792 0.580000 1.272792
v 1.272792 0.610000 1.272792
v 0.688830 0.580000 1.662983
v 0.688830 0.610000 1.662983
v 0.000000 0.580000 1.800000
v 0.000000 0.610000 1.800000
v -0.688830 0.580000 1.662983
v -0.688830 0.610000 1.662983
v -1.272792 0.580000 1.272792
v -1.272792 0.610000 1.272792
v -1.662983 0.580000 0.688830
v -1.662983 0.610000 0.688830
v -1.800000 0.580000 0.000000
v -1.800000 0.610000 0.000000
v -1.662983 0.580000 -0.688830
v -1.662983 0.610000 -0.688830
v -1.272792 0.580000 -1.272792
v -1.272792 0.610000 -1.272792
v -0.688830 0.580000 -1.662983
v -0.688830 0.610000 -1.662983
vn 0.1951 -0.0000 -0.9808
vn 0.5556 -0.0000 -0.8315
vn 0.8315 -0.0000 -0.5556
vn 0.9808 -0.0000 -0.1951
vn 0.9808 -0.0000 0.1951
vn 0.8315 -0.0000 0.5556
vn 0.5556 -0.0000 0.8315
vn 0.1951 -0.0000 0.9808
vn -0.1951 -0.0000 0.9808
vn -0.5556 -0.0000 0.8315
vn -0.8315 -0.0000 0.5556
vn -0.9808 -0.0000 0.1951
vn -0.9808 -0.0000 -0.1951
vn -0.8315 -0.0000 -0.5556
vn -0.0000 1.0000 -0.0000
vn -0.5556 -0.0000 -0.8315
vn -0.1951 -0.0000 -0.9808
vn -0.0000 -1.0000 -0.0000
s 0
usemtl SliceFlesh
f 66//37 67//37 65//37
f 68//38 69//38 67//38
f 70//39 71//39 69//39
f 72//40 73//40 71//40
f 74//41 75//41 73//41
f 76//42 77//42 75//42
f 78//43 79//43 77//43
f 80//44 81//44 79//44
f 82//45 83//45 81//45
f 84//46 85//46 83//46
f 86//47 87//47 85//47
f 88//48 89//48 87//48
f 90//49 91//49 89//49
f 92//50 93//50 91//50
f 86//51 78//51 70//51
f 94//52 95//52 93//52
f 96//53 65//53 95//53
f 79//54 87//54 95//54
f 66//37 68//37 67//37
f 68//38 70//38 69//38
f 70//39 72//39 71//39
f 72//40 74//40 73//40
f 74//41 76//41 75//41
f 76//42 78//42 77//42
f 78//43 80//43 79//43
f 80//44 82//44 81//44
f 82//45 84//45 83//45
f 84//46 86//46 85//46
f 86//47 88//47 87//47
f 88//48 90//48 89//48
f 90//49 92//49 91//49
f 92//50 94//50 93//50
f 70//51 68//51 66//51
f 66//51 96//51 94//51
f 94//51 92//51 90//51
f 90//51 88//51 86//51
f 86//51 84//51 82//51
f 82//51 80//51 78//51
f 78//51 76//51 74//51
f 74//51 72//51 70//51
f 70//51 66//51 94//51
f 94//51 90//51 86//51
f 86//51 82//51 78//51
f 78//51 74//51 70//51
f 70//51 94//51 86//51
f 94//52 96//52 95//52
f 96//53 66//53 65//53
f 95//54 65//54 67//54
f 67//54 69//54 71//54
f 71//54 73//54 75//54
f 75//54 77//54 79//54
f 79//54 81//54 83//54
f 83//54 85//54 87//54
f 87//54 89//54 91//54
f 91//54 93//54 95//54
f 95//54 67//54 71//54
f 71//54 75//54 79//54
f 79//54 83//54 87//54
f 87//54 91//54 95//54
f 95//54 71//54 79//54
o Slice_Center
v 0.000000 0.610000 -1.280000
v 0.000000 0.635000 -1.280000
v 0.489835 0.610000 -1.182566
v 0.489835 0.635000 -1.182566
v 0.905097 0.610000 -0.905097
v 0.905097 0.635000 -0.905097
v 1.182566 0.610000 -0.489835
v 1.182566 0.635000 -0.489835
v 1.280000 0.610000 0.000000
v 1.280000 0.635000 0.000000
v 1.182566 0.610000 0.489835
v 1.182566 0.635000 0.489835
v 0.905097 0.610000 0.905097
v 0.905097 0.635000 0.905097
v 0.489835 0.610000 1.182566
v 0.489835 0.635000 1.182566
v 0.000000 0.610000 1.280000
v 0.000000 0.635000 1.280000
v -0.489835 0.610000 1.182566
v -0.489835 0.635000 1.182566
v -0.905097 0.610000 0.905097
v -0.905097 0.635000 0.905097
v -1.182566 0.610000 0.489835
v -1.182566 0.635000 0.489835
v -1.280000 0.610000 0.000000
v -1.280000 0.635000 0.000000
v -1.182566 0.610000 -0.489835
v -1.182566 0.635000 -0.489835
v -0.905097 0.610000 -0.905097
v -0.905097 0.635000 -0.905097
v -0.489835 0.610000 -1.182566
v -0.489835 0.635000 -1.182566
vn 0.1951 -0.0000 -0.9808
vn 0.5556 -0.0000 -0.8315
vn 0.8315 -0.0000 -0.5556
vn 0.9808 -0.0000 -0.1951
vn 0.9808 -0.0000 0.1951
vn 0.8315 -0.0000 0.5556
vn 0.5556 -0.0000 0.8315
vn 0.1951 -0.0000 0.9808
vn -0.1951 -0.0000 0.9808
vn -0.5556 -0.0000 0.8315
vn -0.8315 -0.0000 0.5556
vn -0.9808 -0.0000 0.1951
vn -0.9808 -0.0000 -0.1951
vn -0.8315 -0.0000 -0.5556
vn -0.0000 1.0000 -0.0000
vn -0.5556 -0.0000 -0.8315
vn -0.1951 -0.0000 -0.9808
vn -0.0000 -1.0000 -0.0000
s 0
usemtl SliceCenter
f 98//55 99//55 97//55
f 100//56 101//56 99//56
f 102//57 103//57 101//57
f 104//58 105//58 103//58
f 106//59 107//59 105//59
f 108//60 109//60 107//60
f 110//61 111//61 109//61
f 112//62 113//62 111//62
f 114//63 115//63 113//63
f 116//64 117//64 115//64
f 118//65 119//65 117//65
f 120//66 121//66 119//66
f 122//67 123//67 121//67
f 124//68 125//68 123//68
f 118//69 110//69 102//69
f 126//70 127//70 125//70
f 128//71 97//71 127//71
f 111//72 119//72 127//72
f 98//55 100//55 99//55
f 100//56 102//56 101//56
f 102//57 104//57 103//57
f 104//58 106//58 105//58
f 106//59 108//59 107//59
f 108//60 110//60 109//60
f 110//61 112//61 111//61
f 112//62 114//62 113//62
f 114//63 116//63 115//63
f 116//64 118//64 117//64
f 118//65 120//65 119//65
f 120//66 122//66 121//66
f 122//67 124//67 123//67
f 124//68 126//68 125//68
f 102//69 100//69 98//69
f 98//69 128//69 126//69
f 126//69 124//69 122//69
f 122//69 120//69 118//69
f 118//69 116//69 114//69
f 114//69 112//69 110//69
f 110//69 108//69 106//69
f 106//69 104//69 102//69
f 102//69 98//69 126//69
f 126//69 122//69 118//69
f 118//69 114//69 110//69
f 110//69 106//69 102//69
f 102//69 126//69 118//69
f 126//70 128//70 127//70
f 128//71 98//71 97//71
f 127//72 97//72 99//72
f 99//72 101//72 103//72
f 103//72 105//72 107//72
f 107//72 109//72 111//72
f 111//72 113//72 115//72
f 115//72 117//72 119//72
f 119//72 121//72 123//72
f 123//72 125//72 127//72
f 127//72 99//72 103//72
f 103//72 107//72 111//72
f 111//72 115//72 119//72
f 119//72 123//72 127//72
f 127//72 103//72 111//72
o Slice_Seed0
v 0.000000 0.645000 0.030000
v 0.057102 0.645000 -0.009200
v 0.134999 0.645000 -0.122071
v 0.239023 0.645000 -0.295000
v 0.351513 0.645000 -0.507129
v 0.393923 0.645000 -0.710297
v 0.346410 0.645000 -0.880000
v 0.257115 0.645000 -1.018343
v 0.136808 0.645000 -1.108640
v -0.000000 0.645000 -1.140000
v -0.136808 0.645000 -1.108640
v -0.257115 0.645000 -1.018343
v -0.346410 0.645000 -0.880000
v -0.393923 0.645000 -0.710297
v -0.351513 0.645000 -0.507129
v -0.239023 0.645000 -0.295000
v -0.134999 0.645000 -0.122071
v -0.057102 0.645000 -0.009200
vn -0.0000 1.0000 -0.0000
s 0
usemtl SliceSeed
f 132//73 140//73 144//73
f 146//73 129//73 130//73
f 130//73 131//73 132//73
f 132//73 133//73 134//73
f 134//73 135//73 136//73
f 136//73 137//73 138//73
f 138//73 139//73 140//73
f 140//73 141//73 142//73
f 142//73 143//73 144//73
f 144//73 145//73 146//73
f 146//73 130//73 132//73
f 132//73 134//73 136//73
f 136//73 138//73 140//73
f 140//73 142//73 144//73
f 144//73 146//73 132//73
f 132//73 136//73 140//73
o Slice_Seed1
v 0.025981 0.645000 -0.015000
v -0.036518 0.645000 -0.044852
v -0.173216 0.645000 -0.055877
v -0.374989 0.645000 -0.059500
v -0.614943 0.645000 -0.050855
v -0.812097 0.645000 0.014001
v -0.935307 0.645000 0.140000
v -1.010468 0.645000 0.286503
v -1.028515 0.645000 0.435841
v -0.987269 0.645000 0.570000
v -0.891707 0.645000 0.672799
v -0.753353 0.645000 0.731840
v -0.588897 0.645000 0.740000
v -0.418174 0.645000 0.696296
v -0.263430 0.645000 0.557983
v -0.135966 0.645000 0.354500
v -0.038217 0.645000 0.177948
v 0.020584 0.645000 0.054052
vn -0.0000 1.0000 -0.0000
s 0
usemtl SliceSeed
f 150//74 158//74 162//74
f 164//74 147//74 148//74
f 148//74 149//74 150//74
f 150//74 151//74 152//74
f 152//74 153//74 154//74
f 154//74 155//74 156//74
f 156//74 157//74 158//74
f 158//74 159//74 160//74
f 160//74 161//74 162//74
f 162//74 163//74 164//74
f 164//74 148//74 150//74
f 150//74 152//74 154//74
f 154//74 156//74 158//74
f 158//74 160//74 162//74
f 162//74 164//74 150//74
f 150//74 154//74 158//74
o Slice_Seed2
v -0.025981 0.645000 -0.015000
v -0.020584 0.645000 0.054052
v 0.038217 0.645000 0.177948
v 0.135966 0.645000 0.354500
v 0.263430 0.645000 0.557983
v 0.418174 0.645000 0.696296
v 0.588897 0.645000 0.740000
v 0.753354 0.645000 0.731840
v 0.891707 0.645000 0.672799
v 0.987269 0.645000 0.570000
v 1.028515 0.645000 0.435841
v 1.010468 0.645000 0.286503
v 0.935307 0.645000 0.140000
v 0.812097 0.645000 0.014001
v 0.614943 0.645000 -0.050855
v 0.374989 0.645000 -0.059500
v 0.173216 0.645000 -0.055877
v 0.036518 0.645000 -0.044852
vn -0.0000 1.0000 -0.0000
s 0
usemtl SliceSeed
f 168//75 176//75 180//75
f 182//75 165//75 166//75
f 166//75 167//75 168//75
f 168//75 169//75 170//75
f 170//75 171//75 172//75
f 172//75 173//75 174//75
f 174//75 175//75 176//75
f 176//75 177//75 178//75
f 178//75 179//75 180//75
f 180//75 181//75 182//75
f 182//75 166//75 168//75
f 168//75 170//75 172//75
f 172//75 174//75 176//75
f 176//75 178//75 180//75
f 180//75 182//75 168//75
f 168//75 172//75 176//75
